# xmcd
#
# Track frame offsets: 
#        150
#        19955
#        39652
#        63103
#        84910
#        102587
#        118090
#        138371
#        161103
#        179827
#        199334
#        218416
#        238102
#        258132
#
# Disc length: 3674 seconds
#
# Revision: 0
# Processed by: cddbd v1.4PL0 Copyright (c) Steve Scherf et al.
# Submitted via: ExactAudioCopy v0.95a4
#
DISCID=c70e580e
DTITLE=Robbie Williams - private Zusammenstellung
DYEAR=2003
DGENRE=Pop
TTITLE0=Let Me Entertain You
TTITLE1=Aint That a Kick In The Head
TTITLE2=Rock DJ
TTITLE3=Kids
TTITLE4=Old Before I Die
TTITLE5=Karma Killer
TTITLE6=Karma Killer
TTITLE7=Let Love Be Your Energy
TTITLE8=Millennium
TTITLE9=She's the One
TTITLE10=If It's Hurting You
TTITLE11=Supreme
TTITLE12=Angels
TTITLE13=Road to Mandalay
EXTD=
EXTT0=
EXTT1=
EXTT2=
EXTT3=
EXTT4=
EXTT5=
EXTT6=
EXTT7=
EXTT8=
EXTT9=
EXTT10=
EXTT11=
EXTT12=
EXTT13=
PLAYORDER=
